<svg xmlns:xlink="http://www.w3.org/1999/xlink" xmlns="http://www.w3.org/2000/svg" id="Layer_1" x="0" y="0" version="1.1" viewBox="0 0 128 128" xml:space="preserve" width="172"  height="172" ><rect width="18" height="30" x="6" y="94" fill="#FFFFFF"></rect><rect width="18" height="60" x="38" y="64" fill="#FFFFFF"></rect><rect width="18" height="40" x="70" y="84" fill="#FFFFFF"></rect><path fill="#444B54" d="M24,127H6c-1.7,0-3-1.3-3-3V94c0-1.7,1.3-3,3-3h18c1.7,0,3,1.3,3,3v30C27,125.7,25.7,127,24,127z M9,121h12V97 H9V121z"></path><path fill="#444B54" d="M56,127H38c-1.7,0-3-1.3-3-3V64c0-1.7,1.3-3,3-3h18c1.7,0,3,1.3,3,3v60C59,125.7,57.7,127,56,127z M41,121h12 V67H41V121z"></path><path fill="#444B54" d="M88,127H70c-1.7,0-3-1.3-3-3V84c0-1.7,1.3-3,3-3h18c1.7,0,3,1.3,3,3v40C91,125.7,89.7,127,88,127z M73,121h12 V87H73V121z"></path><path fill="#71C2FF" d="M120,51h-18c-1.7,0-3,1.3-3,3v70c0,1.7,1.3,3,3,3h18c1.7,0,3-1.3,3-3V54C123,52.3,121.7,51,120,51z"></path><path fill="#71C2FF" d="M5,60c-1.6,0-3-1.3-3-2.9l0-0.4c0-1.7,1.3-3,2.9-3.1c1.7,0,3,1.3,3.1,2.9l0,0.4C8,58.6,6.7,60,5,60 C5.1,60,5,60,5,60z"></path><path fill="#71C2FF" d="M122.1,2.2c-0.3-0.1-0.7-0.2-1.1-0.2c0,0-0.1,0-0.1,0h-10c-1.7,0-3,1.3-3,3s1.3,3,3,3h2.8L80,41.8L50.1,11.9 c-1.2-1.2-3.1-1.2-4.2,0l-33,32.6c-1.2,1.2-1.2,3.1,0,4.2c0.6,0.6,1.4,0.9,2.1,0.9c0.8,0,1.5-0.3,2.1-0.9L48,18.2l29.9,29.9 c1.2,1.2,3.1,1.2,4.2,0L118,12.2V15c0,1.7,1.3,3,3,3s3-1.3,3-3V5C124,3.8,123.3,2.7,122.1,2.2z"></path></svg>