<svg xmlns:xlink="http://www.w3.org/1999/xlink" xmlns="http://www.w3.org/2000/svg" width="512" height="512" viewBox="0 0 512 512"><path fill="#65A844" d="M7.9,256C7.9,119,119,7.9,256,7.9C393,7.9,504.1,119,504.1,256c0,137-111.1,248.1-248.1,248.1C119,504.1,7.9,393,7.9,256z"></path><path fill="#FFFFFF" d="M442.1,244.7c-28.3-28.3-56.6-56.6-84.9-84.9c-9-9-25-2.4-25,10.3c0,18.5,0,37.1,0,55.6c-79.2,0-158.5,0-237.7,0c-37.9,0-38.3,58.8-0.4,58.8c79.4,0,158.8,0,238.2,0c0,18.4,0,36.8,0,55.2c0,0.6,0.1,1.1,0.1,1.7c0.5,6.1,4.2,10,8.8,11.8c4.6,2.3,10.1,2.2,15-1.8c0.6-0.5,1.2-1,1.8-1.6c28.1-28.1,56.2-56.2,84.3-84.3C447.9,259.8,447.7,250.4,442.1,244.7z"></path></svg>